<svg width="46" height="40" viewBox="0 0 46 40" fill="none" xmlns="http://www.w3.org/2000/svg">
<path d="M45.0798 32.0957L27.4154 2.57566C25.3998 -0.784336 20.5509 -0.784336 18.5354 2.57566L0.919851 32.0957C-1.14453 35.5513 1.3511 39.9201 5.33547 39.9201H40.5665C44.6484 39.9201 47.0955 35.5514 45.0796 32.0957H45.0798ZM28.4709 22.2086L22.8064 32.2886C22.2776 33.2486 20.742 32.7199 20.982 31.6174L22.182 26.0484C22.2308 25.9041 22.0864 25.7597 21.942 25.7597H18.4376C17.7664 25.7597 17.2376 25.0885 17.4289 24.4153L20.0201 14.6243C20.1645 14.1443 20.5489 13.8555 21.0289 13.8555H24.9645C25.6845 13.8555 26.2133 14.5755 25.9733 15.2467L24.1489 20.2867C24.1001 20.4311 24.1976 20.6223 24.3889 20.6223H27.5576C28.3751 20.6242 28.8551 21.4886 28.4707 22.2086L28.4709 22.2086Z" fill="white"/>
</svg>
