<svg width="56" height="50" viewBox="0 0 56 50" fill="none" xmlns="http://www.w3.org/2000/svg">
<path d="M54.6802 39.6154L33.3356 3.94539C30.9 -0.114609 25.041 -0.114609 22.6056 3.94539L1.32016 39.6154C-1.17431 43.7909 1.84125 49.07 6.65569 49.07H49.2265C54.1588 49.07 57.1157 43.791 54.6799 39.6154H54.6802ZM34.611 27.6686L27.7664 39.8486C27.1275 41.0086 25.272 40.3696 25.562 39.0375L27.012 32.3083C27.0709 32.1339 26.8964 31.9594 26.722 31.9594H22.4875C21.6764 31.9594 21.0375 31.1483 21.2686 30.3349L24.3996 18.5041C24.5741 17.9241 25.0386 17.5752 25.6186 17.5752H30.3741C31.2441 17.5752 31.883 18.4452 31.593 19.2563L29.3886 25.3463C29.3297 25.5207 29.4475 25.7518 29.6786 25.7518H33.5075C34.4953 25.7541 35.0753 26.7985 34.6108 27.6685L34.611 27.6686Z" fill="#E59F4D"/>
</svg>
