<svg width="46" height="50" viewBox="0 0 46 50" fill="none" xmlns="http://www.w3.org/2000/svg">
<path fill-rule="evenodd" clip-rule="evenodd" d="M3.05818 25.086H3.23264C3.23264 16.3767 7.93609 9.58437 15.252 6.62347V22.4737H17.8642V3.31573C17.8642 1.92239 18.9087 0.87793 20.302 0.87793H25.701C27.0944 0.87793 28.1388 1.92239 28.1388 3.31573C28.1388 9.58669 28.3133 16.0305 28.3133 22.4737H30.7511V6.62347C38.0666 9.58466 42.7704 16.3767 42.7704 25.086H42.9449C44.3382 25.086 45.3827 26.305 45.3827 27.5238V28.2216H0.620583V27.5238C0.620583 26.3049 1.66505 25.086 3.05838 25.086H3.05818ZM43.4656 35.0139C46.0779 37.4517 46.6012 41.1108 45.2079 44.244L40.6789 39.5406C40.33 39.1917 39.6344 39.1917 39.2856 39.5406L37.1944 41.4573C36.8455 41.9806 36.8455 42.6762 37.1944 43.0251L42.0723 47.903C38.9367 49.9942 34.5822 49.6453 31.7953 46.6841C31.0975 46.1607 30.5763 45.2907 30.053 44.5929H13.3328L6.71497 48.4241L0.097168 44.5929V37.1028L6.71497 33.2716L13.3328 37.1028H30.053C30.5764 36.405 31.0975 35.535 31.7953 35.0116C34.9309 31.7015 40.33 31.7015 43.4654 35.0116L43.4656 35.0139ZM9.15282 40.7618C9.15282 42.1551 8.10836 43.3741 6.71502 43.3741C5.32169 43.3741 4.10276 42.1551 4.10276 40.7618C4.10276 39.3685 5.32169 38.324 6.71502 38.324C8.10836 38.324 9.15282 39.3685 9.15282 40.7618ZM23.0862 9.4099C25.1774 9.4099 26.9174 11.1522 26.9174 13.2411C26.9174 15.3323 25.1751 17.0723 23.0862 17.0723C20.8228 17.0723 19.0806 15.33 19.0806 13.2411C19.0806 11.1499 20.8228 9.4099 23.0862 9.4099Z" fill="#AF7BD9"/>
</svg>
