<svg width="38" height="41" viewBox="0 0 38 41" fill="none" xmlns="http://www.w3.org/2000/svg">
<path fill-rule="evenodd" clip-rule="evenodd" d="M2.49615 20.0709H2.64052C2.64052 12.8632 6.53304 7.24195 12.5876 4.79155V17.909H14.7494V2.05411C14.7494 0.901005 15.6138 0.0366211 16.7669 0.0366211H21.2351C22.3882 0.0366211 23.2525 0.901005 23.2525 2.05411C23.2525 7.24387 23.3969 12.5767 23.3969 17.909H25.4144V4.79155C31.4686 7.24219 35.3614 12.8632 35.3614 20.0709H35.5058C36.6589 20.0709 37.5233 21.0797 37.5233 22.0884V22.6659H0.478826V22.0884C0.478826 21.0796 1.34321 20.0709 2.49631 20.0709H2.49615ZM35.9368 28.2871C38.0987 30.3046 38.5318 33.3328 37.3787 35.9258L33.6305 32.0333C33.3418 31.7445 32.7662 31.7445 32.4774 32.0333L30.7468 33.6195C30.458 34.0527 30.458 34.6283 30.7468 34.917L34.7837 38.9539C32.1887 40.6846 28.585 40.3958 26.2786 37.9452C25.7011 37.512 25.2698 36.792 24.8367 36.2145H10.9993L5.52245 39.3852L0.0456543 36.2145V30.0158L5.52245 26.8451L10.9993 30.0158H24.8367C25.2698 29.4383 25.7011 28.7183 26.2786 28.2851C28.8735 25.5458 33.3418 25.5458 35.9366 28.2851L35.9368 28.2871ZM7.53999 33.044C7.53999 34.1971 6.67561 35.2058 5.5225 35.2058C4.3694 35.2058 3.36063 34.1971 3.36063 33.044C3.36063 31.8909 4.3694 31.0265 5.5225 31.0265C6.67561 31.0265 7.53999 31.8909 7.53999 33.044ZM19.071 7.09756C20.8017 7.09756 22.2417 8.53944 22.2417 10.2682C22.2417 11.9988 20.7998 13.4388 19.071 13.4388C17.1979 13.4388 15.7561 11.997 15.7561 10.2682C15.7561 8.53757 17.1979 7.09756 19.071 7.09756Z" fill="white"/>
</svg>
