<svg width="58" height="56" viewBox="0 0 58 56" fill="none" xmlns="http://www.w3.org/2000/svg">
<path d="M54.0466 50.2324H1.75844C1.31891 50.2324 0.879395 50.672 0.879395 51.1115V54.2743C0.879395 54.7138 1.31892 55.1533 1.75844 55.1533H54.0466C54.5745 55.1533 54.9257 54.7138 54.9257 54.2743V51.1115C54.9234 50.5836 54.5722 50.2324 54.0466 50.2324Z" fill="#5986CB"/>
<path d="M52.2 5.76709H38.1396V15.6973H42.1816L44.9048 11.9182C47.8932 7.61126 54.7468 8.92989 55.8024 14.1159C56.6815 13.2369 57.121 12.0066 57.121 10.7764C57.121 7.96245 54.9233 5.76709 52.2001 5.76709H52.2Z" fill="#5986CB"/>
<path d="M18.542 20.6181H33.8326C35.2395 20.6181 36.293 19.4762 36.293 18.1576V3.39256C36.293 1.9856 35.1511 0.84375 33.8326 0.84375L18.542 0.846015C17.1351 0.846015 16.0815 1.98792 16.0815 3.39483V18.0717C16.0815 19.4764 17.2234 20.6183 18.542 20.6183V20.6181Z" fill="#5986CB"/>
<path d="M24.3419 31.1625H28.0327C28.5605 31.1625 28.9117 30.8114 28.9117 30.2835V22.374H23.4629V30.2835C23.4629 30.723 23.8163 31.1625 24.3419 31.1625Z" fill="#5986CB"/>
<path d="M45.4323 37.6674C45.4323 39.8922 42.0928 39.8922 42.0928 37.6674C42.0928 35.4403 45.4323 35.4403 45.4323 37.6674Z" fill="#5986CB"/>
<path d="M21.0024 41.4463H36.8208V43.9068H21.0024V41.4463Z" fill="#5986CB"/>
<path d="M50.6183 36.2599C50.6183 32.4808 47.5416 29.3179 43.765 29.3179C39.986 29.3179 36.823 32.3946 36.823 36.2599L36.8207 36.7878H16.5207C16.2579 36.7878 15.9928 36.8761 15.8184 37.139L10.2812 44.7857C10.1929 44.9624 10.1045 45.1368 10.1045 45.3136V48.4764H50.6163L50.6183 36.2599ZM38.5787 44.783C38.5787 45.2225 38.2275 45.662 37.6996 45.662H20.1227C19.6832 45.662 19.2437 45.2225 19.2437 44.783V40.5644C19.2437 40.1249 19.6832 39.6854 20.1227 39.6854H37.6996C38.2275 39.6854 38.5787 40.1249 38.5787 40.5644V44.783ZM43.7624 41.0062C41.9159 41.0062 40.3345 39.5132 40.3345 37.5783C40.3345 35.7318 41.8275 34.1504 43.7624 34.1504C45.6089 34.1504 47.1903 35.6434 47.1903 37.5783C47.102 39.5108 45.6089 41.0062 43.7624 41.0062Z" fill="#5986CB"/>
<path d="M34.7997 31.8673C34.9765 32.3952 35.2393 32.9208 35.5905 33.3603C37.1719 29.0534 41.7414 26.681 46.1372 27.9998C52.9905 17.9815 54.4863 17.4531 54.0466 14.6419C53.3443 10.8628 48.4234 9.72091 46.2259 12.8838L35.5029 28.1766C34.7122 29.3185 34.5377 30.6371 34.8006 31.8673L34.7997 31.8673ZM43.0601 23.43L46.6624 18.3323C46.9252 17.9812 47.4531 17.8928 47.8927 18.1556C48.3322 18.4184 48.4206 18.9463 48.0694 19.3859L44.4671 24.4835C44.2043 24.9231 43.588 25.0114 43.2368 24.6603C42.7973 24.3974 42.7089 23.7812 43.0601 23.43Z" fill="#5986CB"/>
</svg>
