<svg width="34" height="32" viewBox="0 0 34 32" fill="none" xmlns="http://www.w3.org/2000/svg">
<path d="M32.0412 10.4586H28.0824L28.0838 2.54087C28.0838 1.66953 27.3713 0.957031 26.5 0.957031L7.5 0.958516C6.62866 0.958516 5.91616 1.67102 5.91616 2.54236V10.4585H1.95884C1.0875 10.4585 0.375 11.171 0.375 12.0424V29.4585C0.375 30.3299 1.0875 31.0424 1.95884 31.0424H30.5774L32.041 31.0409C32.9123 31.0409 33.6248 30.3284 33.6248 29.457V12.0409C33.6248 11.171 32.9123 10.4585 32.041 10.4585L32.0412 10.4586ZM7.50004 2.54087H26.5V15.302L17 22.902L7.50004 15.302V2.54087ZM32.0412 29.4585H1.95888V12.0409H5.91772V14.0359L4.82522 13.1645C4.48529 12.8959 3.98656 12.9508 3.70897 13.2907C3.43139 13.6306 3.48779 14.1294 3.83514 14.407L11.7752 20.7495L4.6339 26.4659C4.29398 26.7434 4.23756 27.2333 4.50773 27.5821C4.66655 27.7721 4.89514 27.8745 5.12523 27.8745C5.2989 27.8745 5.47405 27.8196 5.61657 27.7009L13.0429 21.7634L16.5104 24.5347C16.6514 24.652 16.8266 24.7084 17.0003 24.7084C17.174 24.7084 17.3491 24.6535 17.4916 24.5347L20.9591 21.7634L28.3854 27.7009C28.5265 27.8196 28.7016 27.8745 28.8753 27.8745C29.1054 27.8745 29.334 27.7721 29.4928 27.5732C29.7704 27.2333 29.714 26.7346 29.3666 26.457L22.2253 20.7494L30.1578 14.4007C30.4977 14.1231 30.5541 13.6333 30.284 13.2845C30.0153 12.9445 29.5076 12.8881 29.1677 13.1583L28.0841 14.0356V12.0406H32.0414L32.0412 29.4585Z" fill="#41CAAE"/>
<path d="M10.6662 8.87482H23.3323C23.7672 8.87482 24.1235 8.51857 24.1235 8.08366C24.1235 7.64875 23.7672 7.2925 23.3323 7.2925L10.6662 7.29102C10.2313 7.29102 9.875 7.64727 9.875 8.08218C9.875 8.51857 10.2313 8.87482 10.6662 8.87482V8.87482Z" fill="#41CAAE"/>
<path d="M24.125 14.4162C24.125 13.9813 23.7687 13.625 23.3338 13.625H10.6662C10.2313 13.625 9.875 13.9813 9.875 14.4162C9.875 14.8511 10.2313 15.2073 10.6662 15.2073H23.3323C23.7687 15.2088 24.125 14.8526 24.125 14.4162H24.125Z" fill="#41CAAE"/>
</svg>
