<svg width="48" height="46" viewBox="0 0 48 46" fill="none" xmlns="http://www.w3.org/2000/svg">
<path d="M44.7284 41.3994H1.45539C1.09164 41.3994 0.727905 41.7632 0.727905 42.1269V44.7444C0.727905 45.1081 1.09165 45.4719 1.45539 45.4719H44.7284C45.1652 45.4719 45.4558 45.1081 45.4558 44.7444V42.1269C45.454 41.69 45.1633 41.3994 44.7284 41.3994Z" fill="white"/>
<path d="M43.2 4.60059H31.5638V12.8187H34.9089L37.1626 9.69118C39.6357 6.12679 45.3077 7.21807 46.1813 11.5099C46.9088 10.7825 47.2726 9.76433 47.2726 8.7462C47.2726 6.41743 45.4538 4.60059 43.2 4.60059H43.2Z" fill="white"/>
<path d="M15.3451 16.8909H27.9993C29.1637 16.8909 30.0356 15.9458 30.0356 14.8546V2.63524C30.0356 1.47085 29.0906 0.525879 27.9993 0.525879L15.3451 0.527754C14.1807 0.527754 13.3088 1.47278 13.3088 2.63711V14.7835C13.3088 15.946 14.2539 16.891 15.3451 16.891V16.8909Z" fill="white"/>
<path d="M20.1451 25.6175H23.1995C23.6364 25.6175 23.927 25.3269 23.927 24.89V18.3442H19.4176V24.89C19.4176 25.2537 19.7101 25.6175 20.1451 25.6175Z" fill="white"/>
<path d="M37.5993 31.0005C37.5993 32.8417 34.8356 32.8417 34.8356 31.0005C34.8356 29.1574 37.5993 29.1574 37.5993 31.0005Z" fill="white"/>
<path d="M17.3813 34.1279H30.4724V36.1642H17.3813V34.1279Z" fill="white"/>
<path d="M41.8911 29.8359C41.8911 26.7085 39.3448 24.0908 36.2194 24.0908C33.0919 24.0908 30.4743 26.6371 30.4743 29.8359L30.4724 30.2728H13.6724C13.4549 30.2728 13.2355 30.3459 13.0912 30.5634L8.50868 36.8918C8.43555 37.038 8.36243 37.1824 8.36243 37.3286V39.9461H41.8895L41.8911 29.8359ZM31.9273 36.8895C31.9273 37.2533 31.6366 37.617 31.1998 37.617H16.6534C16.2896 37.617 15.9259 37.2533 15.9259 36.8895V33.3983C15.9259 33.0346 16.2896 32.6708 16.6534 32.6708H31.1998C31.6366 32.6708 31.9273 33.0346 31.9273 33.3983V36.8895ZM36.2173 33.7639C34.6891 33.7639 33.3804 32.5283 33.3804 30.927C33.3804 29.3989 34.616 28.0901 36.2173 28.0901C37.7454 28.0901 39.0542 29.3257 39.0542 30.927C38.981 32.5264 37.7454 33.7639 36.2173 33.7639Z" fill="white"/>
<path d="M28.8 26.2006C28.9463 26.6375 29.1638 27.0724 29.4544 27.4362C30.7632 23.8718 34.5448 21.9085 38.1827 22.9999C43.8544 14.7089 45.0923 14.2716 44.7285 11.9451C44.1472 8.81757 40.0747 7.87254 38.2561 10.4901L29.3819 23.1462C28.7275 24.0913 28.5831 25.1825 28.8007 26.2006L28.8 26.2006ZM35.6362 19.218L38.6174 14.9992C38.8349 14.7086 39.2718 14.6355 39.6355 14.853C39.9993 15.0705 40.0724 15.5074 39.7818 15.8711L36.8005 20.0899C36.583 20.4536 36.0731 20.5268 35.7824 20.2361C35.4187 20.0186 35.3455 19.5087 35.6362 19.218Z" fill="white"/>
</svg>
