<svg width="48" height="36" viewBox="0 0 48 36" fill="none" xmlns="http://www.w3.org/2000/svg">
<path d="M13.9199 18.2401V8.64013H11.8555C11.1843 8.64013 10.7999 7.87136 11.2311 7.29575L16.5111 0.624708C16.8467 0.193457 17.4711 0.193457 17.8067 0.624708L23.0867 7.29575C23.518 7.82452 23.1355 8.64013 22.4624 8.64013H20.398V18.2891C20.398 18.5778 20.158 18.8179 19.8692 18.8179L14.4486 18.816C14.1598 18.7691 13.9198 18.5291 13.9198 18.2404L13.9199 18.2401ZM47.2309 27.5046V29.9534C47.2309 31.009 46.3666 31.9221 45.2622 31.9221H42.8622C42.2378 34.0821 40.2222 35.7134 37.8222 35.7134C35.4222 35.7134 33.4066 34.129 32.7822 31.9221L21.9351 31.9203H15.5996C14.9752 34.0803 12.9596 35.7115 10.5596 35.7115C8.1596 35.7115 6.14399 34.1271 5.5196 31.9203H2.68837C1.63276 31.9203 0.719604 31.0559 0.719604 29.9515V27.5027C0.719604 26.5915 1.34399 25.8227 2.20837 25.6315V10.3689C2.20837 9.64894 2.78399 9.02456 3.55276 9.02456H5.95276C6.67276 9.02456 7.29714 9.60018 7.29714 10.3689V19.2489C7.29714 20.6402 8.40152 21.7446 9.79276 21.7446H24.4817C25.8729 21.7446 26.9773 20.6402 26.9773 19.2489V10.1289C26.9773 9.50456 27.5061 8.97771 28.1286 8.97771H30.5773C31.7286 8.97771 32.7373 9.55333 33.3617 10.4177C33.4105 10.4665 33.4573 10.5621 33.5061 10.609L37.5373 16.7045L42.0973 17.0889C43.9686 17.0889 45.5061 18.6245 45.5061 20.4976V25.4887C46.4642 25.6799 47.2311 26.4956 47.2311 27.5043L47.2309 27.5046ZM13.1509 30.4315C13.1509 28.9915 11.9997 27.7915 10.5109 27.7915C9.07093 27.7915 7.87093 28.9915 7.87093 30.4315C7.87093 31.8715 9.02217 33.0715 10.5109 33.0715C11.9997 33.0715 13.1509 31.8715 13.1509 30.4315ZM40.4639 30.4315C40.4639 28.9915 39.3127 27.7915 37.8239 27.7915C36.3839 27.7915 35.1839 28.9915 35.1839 30.4315C35.1839 31.8715 36.3351 33.0715 37.8239 33.0715C39.2639 33.0715 40.4639 31.8715 40.4639 30.4315Z" fill="white"/>
</svg>
