<svg width="58" height="44" viewBox="0 0 58 44" fill="none" xmlns="http://www.w3.org/2000/svg">
<path d="M16.82 22.2899V10.6899H14.3255C13.5144 10.6899 13.05 9.76097 13.571 9.06543L19.951 1.00459C20.3566 0.483496 21.111 0.483496 21.5166 1.00459L27.8966 9.06543C28.4177 9.70436 27.9555 10.6899 27.1421 10.6899H24.6477V22.3491C24.6477 22.698 24.3577 22.988 24.0087 22.988L17.4588 22.9857C17.1099 22.9291 16.8199 22.6391 16.8199 22.2902L16.82 22.2899ZM57.0708 33.4845V36.4434C57.0708 37.7189 56.0264 38.8223 54.6919 38.8223H51.7919C51.0374 41.4323 48.6019 43.4034 45.7019 43.4034C42.8019 43.4034 40.3664 41.4889 39.6119 38.8223L26.505 38.8201H18.8496C18.0952 41.4301 15.6596 43.4011 12.7596 43.4011C9.85963 43.4011 7.42409 41.4867 6.66963 38.8201H3.24856C1.97302 38.8201 0.869629 37.7756 0.869629 36.4411V33.4822C0.869629 32.3811 1.62409 31.4522 2.66856 31.2211V12.7789C2.66856 11.9089 3.36409 11.1544 4.29302 11.1544H7.19302C8.06302 11.1544 8.81748 11.8499 8.81748 12.7789V23.5089C8.81748 25.1899 10.1519 26.5244 11.833 26.5244H29.5822C31.2633 26.5244 32.5977 25.1899 32.5977 23.5089V12.4889C32.5977 11.7344 33.2366 11.0978 33.9888 11.0978H36.9477C38.3388 11.0978 39.5577 11.7933 40.3122 12.8378C40.3711 12.8967 40.4277 13.0123 40.4866 13.0689L45.3577 20.4343L50.8677 20.8988C53.1288 20.8988 54.9866 22.7543 54.9866 25.0177V31.0485C56.1444 31.2796 57.071 32.2652 57.071 33.4841L57.0708 33.4845ZM15.8908 37.0211C15.8908 35.2811 14.4997 33.8311 12.7008 33.8311C10.9608 33.8311 9.51082 35.2811 9.51082 37.0211C9.51082 38.7611 10.9019 40.2111 12.7008 40.2111C14.4997 40.2111 15.8908 38.7611 15.8908 37.0211ZM48.894 37.0211C48.894 35.2811 47.5029 33.8311 45.704 33.8311C43.964 33.8311 42.514 35.2811 42.514 37.0211C42.514 38.7611 43.9051 40.2111 45.704 40.2111C47.444 40.2111 48.894 38.7611 48.894 37.0211Z" fill="#3D3D61"/>
</svg>
