<svg width="45" height="52" viewBox="0 0 45 52" fill="none" xmlns="http://www.w3.org/2000/svg">
<path fill-rule="evenodd" clip-rule="evenodd" d="M38.1105 51.8646C41.2461 51.8646 44.0329 49.2523 44.0329 45.9422V43.5044C44.0329 36.3634 38.6339 30.4411 31.6673 29.5711L23.6563 41.2412V35.4933L24.8753 33.4021H19.1274L20.5207 35.4933V41.2412L12.3352 29.5711C5.54277 30.4411 0.143555 36.3634 0.143555 43.5044V45.9422C0.143555 49.2523 2.75582 51.8646 6.06593 51.8646H38.1133H38.1105ZM9.54553 12.6763C9.54553 7.97284 11.8089 3.96701 15.4679 1.87843L18.2546 9.71539H26.0916L29.0528 2.05069C32.3628 4.31403 34.4518 8.14765 34.4518 12.674H34.6262C35.4962 12.674 36.194 13.3718 36.194 14.2418V14.5907H33.4073V20.3386C33.4073 34.0979 10.5901 34.0979 10.5901 20.3386V14.5907H7.97783V14.2418C7.97783 13.3718 8.67563 12.674 9.54563 12.674L9.54553 12.6763ZM16.6865 1.18069C18.4288 0.482897 20.171 0.13623 22.0855 0.13623C24.0022 0.13623 25.9167 0.659588 27.6589 1.35516L25.0467 8.14754H19.2987L16.6865 1.18069ZM30.969 14.5932H13.0296V20.3411C13.0296 30.7927 30.969 30.7927 30.969 20.3411V14.5932ZM5.01631 38.629H14.7696V43.8535H5.01631V38.629Z" fill="#31BF7B"/>
</svg>
