<svg width="38" height="44" viewBox="0 0 38 44" fill="none" xmlns="http://www.w3.org/2000/svg">
<path fill-rule="evenodd" clip-rule="evenodd" d="M32.3329 43.4049C34.9279 43.4049 37.2342 41.243 37.2342 38.5036V36.4861C37.2342 30.5764 32.7661 25.6751 27.0006 24.9551L20.3709 34.6131V29.8563L21.3796 28.1256H16.6227L17.7758 29.8563V34.6131L11.0016 24.9551C5.38031 25.6751 0.911987 30.5764 0.911987 36.4861V38.5036C0.911987 41.243 3.07386 43.4049 5.81327 43.4049H32.3352H32.3329ZM8.69293 10.9732C8.69293 7.08069 10.566 3.76552 13.5942 2.03704L15.9005 8.5228H22.3862L24.8369 2.1796C27.5762 4.0527 29.305 7.22536 29.305 10.9713H29.4494C30.1694 10.9713 30.7469 11.5488 30.7469 12.2688V12.5575H28.4406V17.3144C28.4406 28.7015 9.5574 28.7015 9.5574 17.3144V12.5575H7.39553V12.2688C7.39553 11.5488 7.97302 10.9713 8.69302 10.9713L8.69293 10.9732ZM14.6027 1.4596C16.0446 0.882111 17.4864 0.595215 19.0708 0.595215C20.6571 0.595215 22.2415 1.02834 23.6833 1.60398L21.5215 7.22526H16.7646L14.6027 1.4596ZM26.4227 12.5596H11.5763V17.3165C11.5763 25.9661 26.4227 25.9661 26.4227 17.3165V12.5596ZM4.94461 32.4513H13.0163V36.775H4.94461V32.4513Z" fill="white"/>
</svg>
