<svg width="36" height="36" viewBox="0 0 36 36" fill="none" xmlns="http://www.w3.org/2000/svg">
<path d="M13.8721 10.7116C14.5757 9.8803 14.589 8.66609 13.9062 7.8185L8.99891 1.74458C8.60705 1.2592 8.03257 0.956382 7.41062 0.9074C6.78868 0.858414 6.17266 1.06771 5.711 1.48777C4.09748 2.90685 2.74669 4.59902 1.71644 6.48401C-0.729813 11.277 2.45713 19.5214 9.46768 26.5321C14.9005 31.9634 21.071 35.0999 25.8046 35.0999C27.0886 35.1252 28.3607 34.8461 29.5156 34.2835C31.4022 33.2534 33.0929 31.9026 34.5118 30.289C34.9319 29.8273 35.1412 29.2113 35.0922 28.5893C35.0447 27.9674 34.7419 27.3915 34.255 26.9996L28.1811 22.0938C27.3335 21.4109 26.1193 21.4243 25.288 22.1279L22.1738 24.7642C21.9319 24.9705 21.5786 24.9779 21.3277 24.7849C19.4603 23.2946 17.6821 21.696 16.0016 19.9977C14.3035 18.3174 12.7048 16.5391 11.2144 14.6716C11.0199 14.4208 11.0288 14.0675 11.2352 13.8255L13.8721 10.7116ZM9.72325 15.8461C11.2596 17.7728 12.9072 19.6075 14.6587 21.3413C16.3924 23.0929 18.2271 24.7405 20.1539 26.2783C21.1157 27.0279 22.471 27.0011 23.4017 26.2129L26.5159 23.5767C26.651 23.4624 26.8499 23.4609 26.9879 23.5722L33.0619 28.478C33.142 28.5419 33.1925 28.6354 33.1999 28.7378C33.2073 28.8387 33.1732 28.9382 33.1049 29.0139C31.8402 30.4552 30.3336 31.6665 28.6517 32.5913C25.2168 34.3443 17.9866 32.3641 10.8111 25.1889C3.63553 18.0133 1.65535 10.7815 3.40867 7.34823C4.33936 5.67087 5.54913 4.16425 6.98603 2.89501C7.05431 2.83267 7.14189 2.79852 7.23391 2.80001C7.2443 2.80001 7.25321 2.80001 7.26212 2.80149L7.26063 2.80001C7.36305 2.80892 7.45805 2.8579 7.52188 2.93806L12.4277 9.01198C12.5405 9.15002 12.5375 9.34893 12.4217 9.48401L9.78698 12.5982C8.99878 13.5289 8.97207 14.8856 9.72315 15.846L9.72325 15.8461Z" fill="#41CAAE"/>
</svg>
