<svg width="32" height="32" viewBox="0 0 32 32" fill="none" xmlns="http://www.w3.org/2000/svg">
<path d="M16 0.799805C7.61637 0.799805 0.800049 7.61613 0.800049 15.9998C0.800049 24.3835 7.61637 31.1998 16 31.1998C24.3837 31.1998 31.2 24.3835 31.2 15.9998C31.2 7.61613 24.3837 0.799805 16 0.799805ZM22.4 22.3998H9.60005C9.08754 22.3998 8.67256 21.9836 8.67256 21.4723C8.67256 20.9598 9.08882 20.5448 9.60005 20.5448L22.4 20.5436C22.9126 20.5436 23.3275 20.9598 23.3275 21.4711C23.3275 21.9836 22.9125 22.3998 22.4 22.3998V22.3998ZM22.4 16.9272H9.60005C9.08754 16.9272 8.67256 16.5109 8.67256 15.9997C8.67256 15.4872 9.08882 15.0722 9.60005 15.0722H22.4C22.9126 15.0722 23.3275 15.4884 23.3275 15.9997C23.3275 16.5122 22.9125 16.9272 22.4 16.9272ZM22.4 11.4235H9.60005C9.08754 11.4235 8.67256 11.0072 8.67256 10.496C8.67256 9.98348 9.08757 9.59974 9.60005 9.59974H22.4C22.9126 9.59974 23.3275 10.016 23.3275 10.5272C23.3275 11.0397 22.9125 11.4235 22.4 11.4235Z" fill="white"/>
</svg>
